<svg id="Layer_1" data-name="Layer 1" xmlns="http://www.w3.org/2000/svg" viewBox="0 0 300 300"><defs><style>.cls-1{fill:#fff;}</style></defs><path class="cls-1" d="M194.71,259.94a3.49,3.49,0,1,0,3.08,3.47A3.23,3.23,0,0,0,194.71,259.94Zm1,5.89-1.2-2.1H194v2.1h-.86V261h1.71c1.1,0,1.7.41,1.7,1.44a1.19,1.19,0,0,1-1.2,1.31l1.23,2.13ZM82.24,241.14c-3.88,0-6.07,3.07-6.28,9.17H88.42c0-3.2-.43-5.15-1.26-6.57A5.64,5.64,0,0,0,82.24,241.14Zm113.47,21.17c0-.57-.5-.67-.94-.67H194V263h.75C195.27,263,195.71,263,195.71,262.31ZM54.56,241.55a5.7,5.7,0,0,0-5.09,3.08c-1.32,2.25-1.75,4.38-1.75,8.52,0,3.43.22,6,1.09,7.69a5.61,5.61,0,0,0,5.47,3.43,7.45,7.45,0,0,0,5.25-1.89,5.63,5.63,0,0,0,1.64-2.13V244.63C59.81,242.56,57.78,241.55,54.56,241.55Zm177.28-84.73c-6.93,0-10.88,4-10.88,10.94,0,7.49,4.35,10.51,10.75,10.51,7.21,0,11.15-3.74,11.15-10.51S238.79,156.82,231.84,156.82Zm-168-22.89H51.72v30.52h9.93c7.75,0,10.07-1,12.65-5.18,1.64-2.73,2.31-5.61,2.31-10.37C76.61,139.54,71.85,133.93,63.82,133.93ZM0,0V300H300V0ZM114.44,111.76c6.12,0,11,5.33,11,11.94s-5,12-11.3,12c-6.11,0-11.15-5.33-11.15-12A11.72,11.72,0,0,1,114.44,111.76Zm8.84,30.51v75.45H105.06V145.3ZM37.06,267.76H32.68V227.18h4.38Zm24.88,0a10.91,10.91,0,0,1-.6-3,8.38,8.38,0,0,1-7.22,3.42c-7.06,0-11.1-5.5-11.1-14.9,0-6.28,1.91-10.89,5.63-13.67a8.16,8.16,0,0,1,5.25-1.83,8.8,8.8,0,0,1,7.38,3.72s-.05-2.42-.05-4.55v-9.81h4.26v31.11c0,5.08.22,7.8.82,9.52Zm31-14H76v.71c0,2.78.32,4.91,1.25,6.45a7.53,7.53,0,0,0,6.78,3.6,9,9,0,0,0,6.67-2.78l1.65,3a13.05,13.05,0,0,1-9.19,3.66c-7.55,0-12.08-5.91-12.08-15.68,0-5,1-8.16,3.27-11.12a9.86,9.86,0,0,1,8.15-4.08,9.68,9.68,0,0,1,7.39,3.19c2.34,2.61,3,5.39,3.11,12.43ZM81.1,177.55c-4.35,2.16-8.44,3.32-18.91,3.32H51.72v36.85h-19V117.66H57.57c16.05,0,20.95,1.73,26.26,4.9,8.83,5.18,13.59,14.39,13.59,25.92C97.42,161.72,91.44,172.37,81.1,177.55Zm37.75,90.21h-4.32V247.82c0-3.13-.22-3.9-1-4.91a3.83,3.83,0,0,0-3-1.24c-2.19,0-5.57,1.9-7.54,4.14v21.95H98.83V245a14.62,14.62,0,0,0-1-6.21l4.16-1.24a12.58,12.58,0,0,1,1,4.61c2.83-3.07,5.68-4.55,8.58-4.55a7.19,7.19,0,0,1,6.67,4.32,9,9,0,0,1,.66,3.43Zm17.48-25.91h-5.89v19c0,3.25.82,4.38,3.5,4.38,1.21,0,.89,0,1.66-.4l.6,3a6,6,0,0,1-3.79,1,7.52,7.52,0,0,1-3.56-.83c-1.91-1-2.62-2.9-2.62-5.86V241.85h-3.55v-3.49h3.55V227.2h4.38v11.16h7Zm10.38,25.91h-4.42V238.39l4.42-.74Zm16.44-2.6c1.2,0,.89,0,1.65-.4l.61,3a6,6,0,0,1-3.79,1,7.49,7.49,0,0,1-3.56-.82c-1.91-1-2.62-2.9-2.62-5.86V241.79h-3.56V238.3h3.56V227.13h4.38V238.3h6.83l-1.31,3.49h-5.69v19C159.65,264,160.47,265.16,163.15,265.16Zm-6.8-99.56v52.12H138.11V164.3A56.35,56.35,0,0,0,135.67,147l16.18-4.89a19.72,19.72,0,0,1,2.59,9.21,77.52,77.52,0,0,1,8-5.47A27.5,27.5,0,0,1,175,142.72c7.76,0,14.56,4.31,16.73,10.65a31.09,31.09,0,0,1,1.37,10.51v53.84h-18V169.78c0-8.35-1.36-10.79-6.12-10.79C165.32,159,160.56,161.58,156.35,165.6Zm18.37,114.29-1.26-3.14c2.67-.9,4.06-2.21,5.23-5.42C178.25,269,178,268,178,268c-.32-1.89-1.8-7.64-2.73-10.59L169.41,239l4.22-1.54,5.58,19.11c.82,2.78,1.64,7.33,1.64,7.33H181l1.69-6.2L188,238.3h4.87l-9.35,30.52C181.67,274.74,179.48,278.65,174.72,279.89Zm20-12.18a4.31,4.31,0,1,1,4.07-4.3A4.19,4.19,0,0,1,194.71,267.71Zm66.93-98.51c0,12.67-10.89,21.89-25.72,21.89a20.16,20.16,0,0,1-2.72-.15c-4.62,2.31-7.2,4-7.2,6.05,0,1,1.08,1.73,3,1.73l9.8.14c10.6.14,16.18,1.87,21.08,6.63,4.07,4,6,9.07,6,15.69a21.63,21.63,0,0,1-5.58,15.26c-6.12,6.91-16.6,9.5-27.48,9.5-9.92,0-20.13-1.73-26.38-7.92a17.72,17.72,0,0,1-5.71-13.09,15.31,15.31,0,0,1,1.63-7.49H219.2a10.73,10.73,0,0,0-.83,4.74c0,5.91,4.64,9.07,13.07,9.07,4.62,0,8.57-.57,11.42-2.45a9,9,0,0,0,4.49-7.48c0-6.62-5.57-8.64-12.79-8.78l-7.75-.15c-8.16-.15-13.46-.86-16.73-2.3-3.27-1.29-5.3-4.6-5.3-9.64,0-4.75,1.35-9.22,12.78-12.38-10.07-2.74-15-9.51-15-20.45,0-15.12,11.56-24.9,29.38-24.9a47.86,47.86,0,0,1,12.52,1.86c3.8,1,6.25,1.59,8.56,1.59,5,0,10.2-2.3,14.42-6.34l7.62,12.24c-4,3.88-7.75,5.47-12.78,5.47a35.82,35.82,0,0,1-4.77-.43A18.41,18.41,0,0,1,261.64,169.2Z"/></svg>